<svg xmlns="http://www.w3.org/2000/svg" fill="none" viewBox="0 0 24 24" height="48" width="48"><path fill="none" fill-rule="evenodd" d="M5 1a4 4 0 0 0-4 4v14a4 4 0 0 0 4 4h14a4 4 0 0 0 4-4V5a4 4 0 0 0-4-4H5Zm9.803 6.562a.364.364 0 0 0-.515 0l-2.181 2.181a.364.364 0 0 0 0 .515l1.454 1.454a.363.363 0 0 0 .524-.01l.417-.452 3.425 3.373c.142.14.37.14.512-.002l1.454-1.454a.364.364 0 0 0 0-.514l-5.09-5.091ZM9.712 9.016a.364.364 0 0 0-.515 0l-5.09 5.091a.364.364 0 0 0 0 .514l1.818 1.818a.364.364 0 0 0 .514 0l3.016-3.015 3.015 3.015a.364.364 0 0 0 .514 0l1.819-1.818a.364.364 0 0 0 0-.514l-5.091-5.09Z" clip-rule="evenodd"></path></svg>