<svg xmlns="http://www.w3.org/2000/svg" fill="none" viewBox="0 0 24 24" height="48" width="48"><path stroke="#000000" stroke-linecap="round" stroke-linejoin="round" d="M11.996 1.771a10.486 10.486 0 0 0-3.314 20.438c.523.092.69-.216.69-.493 0-.25.005-.945 0-1.824-2.919.633-3.522-1.381-3.522-1.381a2.775 2.775 0 0 0-1.163-1.534c-.952-.65.071-.638.071-.638a2.201 2.201 0 0 1 1.607 1.08 2.232 2.232 0 0 0 3.05.871c.05-.53.285-1.025.666-1.397-2.328-.266-4.776-1.165-4.776-5.184a4.055 4.055 0 0 1 1.08-2.815 3.762 3.762 0 0 1 .103-2.774s.882-.282 2.883 1.076a9.924 9.924 0 0 1 5.252 0c2.007-1.357 2.881-1.076 2.881-1.076.387.878.424 1.87.104 2.774a4.05 4.05 0 0 1 1.079 2.816c0 4.03-2.452 4.916-4.789 5.174a2.487 2.487 0 0 1 .718 1.933v2.904c0 .28.17.59.702.488a10.487 10.487 0 0 0-3.322-20.438v0Z"></path></svg>