<svg xmlns="http://www.w3.org/2000/svg" fill="none" viewBox="0 0 24 24" height="48" width="48"><path fill="none" fill-rule="evenodd" d="M5 1a4 4 0 0 0-4 4v14a4 4 0 0 0 4 4h14a4 4 0 0 0 4-4V5a4 4 0 0 0-4-4H5Zm1.815 5.11a7.99 7.99 0 0 1 5.182-1.903 7.99 7.99 0 0 1 2.531 15.572c-.405.077-.535-.159-.535-.372v-2.212a1.893 1.893 0 0 0-.546-1.473c1.78-.197 3.648-.871 3.648-3.942a3.086 3.086 0 0 0-.822-2.146 2.87 2.87 0 0 0-.08-2.114s-.666-.214-2.194.82a7.561 7.561 0 0 0-4.002 0C8.472 7.306 7.8 7.52 7.8 7.52a2.867 2.867 0 0 0-.078 2.114 3.09 3.09 0 0 0-.823 2.144c0 3.063 1.866 3.748 3.64 3.95a1.705 1.705 0 0 0-.508 1.065 1.702 1.702 0 0 1-2.325-.664 1.678 1.678 0 0 0-1.224-.823s-.78-.01-.054.487c.426.271.74.686.887 1.168 0 0 .459 1.535 2.682 1.053.003.504.002.929 0 1.19v.2c0 .21-.126.445-.525.375A7.99 7.99 0 0 1 6.815 6.11Z" clip-rule="evenodd"></path></svg>