<svg xmlns="http://www.w3.org/2000/svg" fill="none" viewBox="0 0 26 26" height="48" width="48"><path fill="none" d="M11.996 1.284a10.986 10.986 0 0 0-3.472 21.412c.548.095.722-.227.722-.517 0-.263.006-.991 0-1.91-3.057.662-3.688-1.448-3.688-1.448a2.907 2.907 0 0 0-1.22-1.607c-.997-.682.075-.669.075-.669a2.307 2.307 0 0 1 1.683 1.131 2.34 2.34 0 0 0 3.197.914 2.34 2.34 0 0 1 .697-1.464c-2.439-.279-5.004-1.22-5.004-5.432a4.248 4.248 0 0 1 1.132-2.948 3.942 3.942 0 0 1 .107-2.907s.924-.295 3.02 1.128a10.402 10.402 0 0 1 5.503 0c2.102-1.422 3.018-1.128 3.018-1.128.405.92.444 1.96.109 2.907a4.243 4.243 0 0 1 1.13 2.95c0 4.223-2.569 5.15-5.016 5.42a2.604 2.604 0 0 1 .752 2.026v3.041c0 .294.177.619.735.512a10.986 10.986 0 0 0-3.48-21.411Z"></path></svg>