<svg xmlns="http://www.w3.org/2000/svg" fill="none" viewBox="0 0 24 24" height="48" width="48"><path stroke="#000000" stroke-linejoin="round" d="M1.5 3.5a2 2 0 1 0 4 0 2 2 0 1 0-4 0"></path><path stroke="#000000" stroke-linejoin="round" d="M1.5 22.5v-14h4v14h-4Z" clip-rule="evenodd"></path><path stroke="#000000" stroke-linejoin="round" d="M8 8.5v14h4v-6.908c0-1.092 1-3.092 3.895-3.092 1.643 0 2.605.845 2.605 2.5v7.5h4V15c0-1.309-.312-2.937-1.394-4.277-1.144-1.417-2.913-2.223-5.21-2.223-1.513 0-2.835.615-3.896 1.366V8.5H8Z" clip-rule="evenodd"></path></svg>